<svg xmlns="http://www.w3.org/2000/svg" xmlns:xlink="http://www.w3.org/1999/xlink" width="500" zoomAndPan="magnify" viewBox="0 0 375 374.999991" height="500" preserveAspectRatio="xMidYMid meet" version="1.0"><defs><clipPath id="47f3f25262"><path d="M 10.765625 34.589844 L 364.015625 34.589844 L 364.015625 340.589844 L 10.765625 340.589844 Z M 10.765625 34.589844 " clip-rule="nonzero"/></clipPath><clipPath id="33404eb4a6"><path d="M 21.527344 44.867188 L 353.59375 44.867188 L 353.59375 330.132812 L 21.527344 330.132812 Z M 21.527344 44.867188 " clip-rule="nonzero"/></clipPath><clipPath id="8923d17c17"><path d="M 353.472656 187.5 L 270.484375 330.132812 L 104.515625 330.132812 L 21.527344 187.5 L 104.515625 44.867188 L 270.484375 44.867188 Z M 353.472656 187.5 " clip-rule="nonzero"/></clipPath><clipPath id="6dab80fd76"><path d="M 35.515625 56.886719 L 339.597656 56.886719 L 339.597656 318.113281 L 35.515625 318.113281 Z M 35.515625 56.886719 " clip-rule="nonzero"/></clipPath><clipPath id="5661840a26"><path d="M 339.484375 187.5 L 263.492188 318.113281 L 111.507812 318.113281 L 35.515625 187.5 L 111.507812 56.886719 L 263.492188 56.886719 Z M 339.484375 187.5 " clip-rule="nonzero"/></clipPath><clipPath id="8e51ea63fc"><path d="M 95.253906 95.253906 L 279.753906 95.253906 L 279.753906 279.753906 L 95.253906 279.753906 Z M 95.253906 95.253906 " clip-rule="nonzero"/></clipPath></defs><g clip-path="url(#47f3f25262)"><path fill="#2ecc71" d="M 273.644531 336.675781 L 359.777344 187.496094 L 273.644531 38.3125 L 101.382812 38.3125 L 15.253906 187.496094 L 101.382812 336.675781 Z M 364.253906 187.496094 L 275.886719 340.554688 L 99.144531 340.554688 L 10.777344 187.496094 L 99.144531 34.433594 L 275.886719 34.433594 L 364.253906 187.496094 " fill-opacity="1" fill-rule="nonzero"/></g><g clip-path="url(#33404eb4a6)"><g clip-path="url(#8923d17c17)"><path fill="#2ecc71" d="M 21.527344 44.867188 L 353.59375 44.867188 L 353.59375 330.132812 L 21.527344 330.132812 Z M 21.527344 44.867188 " fill-opacity="1" fill-rule="nonzero"/></g></g><g clip-path="url(#6dab80fd76)"><g clip-path="url(#5661840a26)"><path fill="#011936" d="M 35.515625 56.886719 L 339.597656 56.886719 L 339.597656 318.113281 L 35.515625 318.113281 Z M 35.515625 56.886719 " fill-opacity="1" fill-rule="nonzero"/></g></g><g clip-path="url(#8e51ea63fc)"><path fill="#2ecc71" d="M 187.5 279.746094 C 136.636719 279.746094 95.253906 238.367188 95.253906 187.5 C 95.253906 136.632812 136.636719 95.253906 187.5 95.253906 C 238.363281 95.253906 279.742188 136.636719 279.742188 187.5 C 279.742188 238.363281 238.363281 279.742188 187.5 279.742188 Z M 187.5 102.589844 C 140.683594 102.589844 102.589844 140.683594 102.589844 187.5 C 102.589844 234.316406 140.683594 272.40625 187.5 272.40625 C 234.316406 272.40625 272.40625 234.316406 272.40625 187.5 C 272.40625 140.683594 234.320312 102.589844 187.5 102.589844 Z M 187.5 102.589844 " fill-opacity="1" fill-rule="nonzero"/></g><path fill="#2ecc71" d="M 237.355469 169.144531 L 205.859375 169.144531 L 205.859375 137.648438 C 205.859375 132.003906 201.285156 127.429688 195.640625 127.429688 L 179.363281 127.429688 C 173.71875 127.429688 169.144531 132.003906 169.144531 137.648438 L 169.144531 169.144531 L 137.648438 169.144531 C 132.003906 169.144531 127.429688 173.71875 127.429688 179.363281 L 127.429688 195.640625 C 127.429688 201.285156 132.003906 205.859375 137.648438 205.859375 L 169.144531 205.859375 L 169.144531 237.355469 C 169.144531 242.996094 173.71875 247.570312 179.363281 247.570312 L 195.640625 247.570312 C 201.285156 247.570312 205.859375 242.996094 205.859375 237.355469 L 205.859375 205.859375 L 237.355469 205.859375 C 242.996094 205.859375 247.570312 201.285156 247.570312 195.640625 L 247.570312 179.363281 C 247.570312 173.71875 242.996094 169.144531 237.355469 169.144531 Z M 237.355469 169.144531 " fill-opacity="1" fill-rule="nonzero"/></svg>